<svg width="100" height="19" viewBox="0 0 100 19" fill="none" xmlns="http://www.w3.org/2000/svg">
<path d="M36.067 3.8504L31.9736 8.24127L32.0996 3.8504H30.0681L30.0584 10.0028L23.2157 17.1147H25.5148L30.2023 12.1148L30.0689 17.1147H32.1354L32.1421 10.3062L38.3288 3.8504H36.067Z" fill="white"/>
<path d="M54.3051 3.8504L49.9046 12.9766L50.5084 3.8504H48.3644L41.9682 17.1147H43.9258L48.3309 7.97961L47.7457 17.1147H49.8315L56.2277 3.8504H54.3051Z" fill="white"/>
<path d="M62.8737 5.6239L63.7287 3.8504H56.8763L56.0213 5.6239H58.4329L52.8918 17.1147H54.9031L60.4442 5.6239H62.8737Z" fill="white"/>
<path d="M71.2715 1.77649L67.7737 9.34756H63.7555L64.2841 8.19431L62.9355 6.84201L62.4435 7.90432L58.1637 17.1497L59.428 18.801L62.8833 11.1561H66.9015L66.3915 12.2139L67.7998 13.3314L72.3367 3.79972L71.2715 1.77649Z" fill="white"/>
<path d="M80.8576 7.58376C81.0686 6.73391 81.1334 5.99067 81.0492 5.37565C80.9597 4.71963 80.7033 4.1963 80.2866 3.82133C79.8698 3.44635 79.2794 3.25104 78.5421 3.25104C77.7906 3.25746 77.0502 3.43301 76.3758 3.76467C75.6333 4.12865 74.948 4.59903 74.3414 5.16095C73.6466 5.80233 73.0233 6.51692 72.4821 7.29228C71.8767 8.15323 71.3441 9.06313 70.8898 10.0125C70.4082 11.0115 70.0593 11.9388 69.8536 12.7708C69.6419 13.6214 69.5792 14.3676 69.6665 14.9893C69.7589 15.6513 70.0213 16.1776 70.4447 16.5548C70.8682 16.9321 71.4593 17.1229 72.1959 17.1229C72.9334 17.1142 73.6593 16.9383 74.319 16.6085C75.0598 16.2407 75.7433 15.7673 76.3482 15.2033C77.0441 14.557 77.6707 13.84 78.2179 13.0638C78.8321 12.1986 79.3708 11.2823 79.8281 10.3249C80.2634 9.44848 80.6083 8.53004 80.8576 7.58376ZM78.7248 7.93637C78.5017 8.64865 78.2248 9.34295 77.8966 10.0133C77.55 10.7345 77.1557 11.4318 76.7165 12.1006C76.3253 12.7011 75.8812 13.2655 75.3895 13.7869C74.9862 14.219 74.5242 14.5924 74.0171 14.8962C73.5825 15.1466 73.1553 15.2741 72.7498 15.2741C72.377 15.2741 72.1198 15.1787 71.9655 14.9834C71.7941 14.7657 71.7083 14.4466 71.7106 14.0344C71.7106 13.5744 71.8112 13.0235 72.0013 12.3943C72.2244 11.682 72.5016 10.9877 72.8303 10.3174C73.1764 9.59596 73.5706 8.8986 74.0104 8.23009C74.3977 7.63438 74.8394 7.07586 75.3299 6.56171C75.7341 6.13536 76.1961 5.76775 76.7023 5.46958C77.0945 5.23228 77.5419 5.10172 78.0002 5.09088C78.3476 5.09088 78.5891 5.18481 78.7375 5.37789C78.9067 5.60153 78.9961 5.91612 79.0036 6.32092C79.0058 6.77044 78.9141 7.31241 78.7248 7.93563V7.93637Z" fill="white"/>
<path d="M92.4564 3.55147H90.428L86.477 11.7517C86.255 12.2124 86.0077 12.6604 85.736 13.0936C85.482 13.4987 85.1859 13.8757 84.8526 14.2185C84.5517 14.5306 84.2025 14.7924 83.8186 14.9938C83.4601 15.1797 83.0617 15.2757 82.6579 15.2734C82.2852 15.2734 82.0183 15.1988 81.8916 15.0661C81.7544 14.917 81.6858 14.7217 81.6836 14.463C81.6916 14.0942 81.7607 13.7292 81.8878 13.3828C82.0416 12.9304 82.2234 12.488 82.432 12.0581L86.5321 3.55072H84.5037L80.4752 11.9075C80.1758 12.5162 79.9313 13.1504 79.7446 13.8025C79.5731 14.4235 79.5277 14.9797 79.6082 15.4553C79.6452 15.7011 79.7315 15.9368 79.8621 16.1484C79.9926 16.3599 80.1647 16.5428 80.3678 16.6861C80.7719 16.9753 81.3369 17.1162 82.0928 17.1162C82.7831 17.121 83.4674 16.9879 84.1056 16.7248C84.7226 16.4648 85.2929 16.1057 85.7941 15.6618C86.3151 15.1981 86.779 14.674 87.1762 14.1007C87.5921 13.5027 87.9598 12.8725 88.2758 12.2162L92.4564 3.55147Z" fill="white"/>
<path d="M99.9388 4.72113C99.8818 4.48024 99.7739 4.25431 99.6224 4.0585C99.471 3.86269 99.2794 3.70151 99.0606 3.58577C98.6484 3.36213 98.1228 3.25031 97.4951 3.25031C97.0212 3.25638 96.5511 3.33507 96.1011 3.48364C95.5997 3.64756 95.1232 3.87931 94.6847 4.17246C94.2003 4.49465 93.76 4.87858 93.3749 5.31454C92.9504 5.79548 92.5954 6.33347 92.32 6.91284C92.0636 7.44437 91.913 7.92297 91.8728 8.33447C91.8248 8.71284 91.8631 9.09714 91.9846 9.45865C92.1011 9.77776 92.2867 10.0672 92.528 10.3063C92.7587 10.535 93.014 10.7375 93.2892 10.9101C93.4794 11.0347 93.6585 11.1757 93.8244 11.3313C93.9634 11.462 94.076 11.6181 94.1561 11.7913C94.2329 11.9676 94.2659 12.16 94.2523 12.3519C94.2252 12.6329 94.1434 12.9058 94.0115 13.1555C93.6805 13.8406 93.2474 14.3736 92.7226 14.7381C92.1978 15.1027 91.6976 15.2779 91.2071 15.2779C90.8845 15.2874 90.5671 15.1959 90.2991 15.0162C90.1827 14.9373 90.0832 14.8361 90.0064 14.7183C89.9296 14.6005 89.877 14.4687 89.8518 14.3304L89.737 13.7944L87.921 15.1295L87.9799 15.3614C88.1141 15.8936 88.4463 16.3546 88.9088 16.6503C89.3725 16.9612 89.9666 17.1184 90.6733 17.1184C91.1747 17.1137 91.6719 17.0263 92.1449 16.8598C92.6569 16.6822 93.1418 16.4346 93.5859 16.124C94.0597 15.7926 94.49 15.4029 94.8666 14.964C95.2719 14.4915 95.6128 13.9673 95.8804 13.4052C96.1436 12.8603 96.2927 12.3697 96.3277 11.9486C96.3665 11.5533 96.3079 11.1545 96.157 10.7871C96.0174 10.4635 95.8147 10.171 95.5606 9.92681C95.3254 9.70236 95.0707 9.49929 94.7995 9.31999C94.6215 9.20293 94.453 9.07207 94.2955 8.92862C94.1672 8.81524 94.0654 8.675 93.9974 8.51786C93.9311 8.35239 93.9055 8.17343 93.9228 7.99602C93.9578 7.71845 94.0426 7.44948 94.1733 7.20209C94.3378 6.85199 94.5492 6.52595 94.8017 6.23297C95.021 5.97884 95.2715 5.75342 95.5472 5.56203C95.7797 5.40208 96.034 5.27654 96.3024 5.18929C96.5268 5.11588 96.761 5.07643 96.9971 5.07225C97.2606 5.06104 97.5223 5.12023 97.7553 5.24372C97.9148 5.33988 98.0177 5.50463 98.0684 5.74766L98.1809 6.28813L100.001 4.94627L99.9388 4.72113Z" fill="white"/>
<path d="M42.0592 3.8504L32.2904 17.1147H34.4307L41.7982 6.87556L39.2286 17.1147H41.2533L44.3709 3.8504H42.0592Z" fill="white"/>
<path d="M9.80826 8.07431L12.489 12.7179H12.4883L13.7481 14.9007L13.7615 14.9081L13.7571 14.9156L13.763 14.926L13.7444 14.9372L12.5233 17.0521H19.6448L13.2956 6.05481H10.9742L9.80826 8.07431Z" fill="#4E9CC5"/>
<path d="M5.08566 12.7052L5.07224 12.7126L5.06776 12.7052H5.05509V12.6836L3.78703 10.4866L0 17.0461H12.5643L13.7981 14.9096L12.5293 12.7119L5.08566 12.7052Z" fill="#001D3A"/>
<path d="M5.02301 12.7074H7.11483L9.79856 8.06011L9.80452 8.0713L10.9623 6.06671V6.0518H10.9705L10.9772 6.04061L10.9958 6.0518H13.2919L9.79856 0L3.74228 10.4896L5.02301 12.7074Z" fill="#FFCE27"/>
<path opacity="0.6" d="M10.9705 6.05482H13.2919L12.4271 4.54523H10.1057L8.93979 6.56473L9.80827 8.06836L10.9705 6.05482Z" fill="#60A7D1"/>
<path opacity="0.6" d="M4.96562 12.4622L3.78329 10.4643L2.9245 11.9776L4.10683 13.9755L6.43943 13.9502L7.29077 12.4368L4.96562 12.4622Z" fill="#FFCE27"/>
<path opacity="0.6" d="M13.7734 14.8753L12.5307 17.0513L14.4086 17.0491L15.6513 14.873L14.3825 12.6985L12.5084 12.7074L13.7734 14.8753Z" fill="#031F34"/>
</svg>
