<svg id="图层_1" data-name="图层 1" xmlns="http://www.w3.org/2000/svg" viewBox="0 0 314 320.75"><defs><style>.cls-1{fill:#000f28;}.cls-2{fill:#4e9cc5;}.cls-3{fill:#001d3a;}.cls-4,.cls-6{fill:#ffce27;}.cls-5{fill:#60a7d1;}.cls-5,.cls-6,.cls-7{opacity:0.6;}.cls-7{fill:#031f34;}</style></defs><title>未标题-1</title><polygon class="cls-1" points="52.55 259.61 35.82 277.56 36.33 259.61 28.02 259.61 27.98 284.76 0 313.85 9.4 313.85 28.57 293.4 28.03 313.85 36.48 313.85 36.5 286.01 61.8 259.61 52.55 259.61"/><polygon class="cls-1" points="127.14 259.61 109.14 296.93 111.61 259.61 102.84 259.61 76.69 313.85 84.69 313.85 102.71 276.49 100.31 313.85 108.84 313.85 135 259.61 127.14 259.61"/><polygon class="cls-1" points="162.18 266.86 165.67 259.61 137.65 259.61 134.15 266.86 144.02 266.86 121.36 313.85 129.58 313.85 152.24 266.86 162.18 266.86"/><polygon class="cls-1" points="196.52 251.13 182.22 282.09 165.78 282.09 167.94 277.37 162.43 271.84 160.42 276.19 142.92 313.99 148.09 320.75 162.22 289.48 178.65 289.48 176.56 293.81 182.32 298.38 200.88 259.4 196.52 251.13"/><path class="cls-1" d="M239,276.05a24.44,24.44,0,0,0,.79-9,10.16,10.16,0,0,0-3.12-6.36,10.37,10.37,0,0,0-7.14-2.33,20.46,20.46,0,0,0-8.85,2.1,34.64,34.64,0,0,0-8.32,5.71,53.61,53.61,0,0,0-7.6,8.72A77.71,77.71,0,0,0,198.26,286,59.48,59.48,0,0,0,194,297.25a24.35,24.35,0,0,0-.77,9.07,10.11,10.11,0,0,0,3.19,6.4A10.47,10.47,0,0,0,203.6,315a20,20,0,0,0,8.68-2.1,35,35,0,0,0,8.3-5.75,56.07,56.07,0,0,0,7.65-8.75,76.21,76.21,0,0,0,6.58-11.2A58.83,58.83,0,0,0,239,276.05Zm-8.72,1.44A59.67,59.67,0,0,1,226.9,286a73.86,73.86,0,0,1-4.82,8.54,48.92,48.92,0,0,1-5.44,6.9A25.83,25.83,0,0,1,211,306a10.41,10.41,0,0,1-5.19,1.55,3.82,3.82,0,0,1-3.21-1.19,6.12,6.12,0,0,1-1-3.88,24.33,24.33,0,0,1,1.18-6.69,61.2,61.2,0,0,1,3.39-8.5,74.4,74.4,0,0,1,4.83-8.53,46.51,46.51,0,0,1,5.4-6.82,25.53,25.53,0,0,1,5.61-4.47,10.71,10.71,0,0,1,5.31-1.55,3.54,3.54,0,0,1,3,1.18,6.45,6.45,0,0,1,1.09,3.85A21.9,21.9,0,0,1,230.29,277.49Z" transform="translate(-3.29 0.04)"/><path class="cls-1" d="M286.45,259.56h-8.3L262,293.09a55.19,55.19,0,0,1-3,5.48,28,28,0,0,1-3.6,4.62,16.79,16.79,0,0,1-4.23,3.17,10.18,10.18,0,0,1-4.75,1.14,4.36,4.36,0,0,1-3.13-.85,3.48,3.48,0,0,1-.85-2.46,13.67,13.67,0,0,1,.84-4.42,46.58,46.58,0,0,1,2.22-5.42l16.77-34.79h-8.29l-16.48,34.18a46.81,46.81,0,0,0-3,7.75,15.79,15.79,0,0,0-.56,6.76,7.54,7.54,0,0,0,3.11,5c1.65,1.19,4,1.76,7.05,1.76a21.2,21.2,0,0,0,8.24-1.6,25.19,25.19,0,0,0,6.91-4.34,36.11,36.11,0,0,0,5.65-6.39,55.33,55.33,0,0,0,4.5-7.71Z" transform="translate(-3.29 0.04)"/><path class="cls-1" d="M317,264.35a7.1,7.1,0,0,0-3.59-4.65,13.36,13.36,0,0,0-6.38-1.37,19,19,0,0,0-5.72.94,23.47,23.47,0,0,0-5.8,2.82,27.14,27.14,0,0,0-5.36,4.67,27.69,27.69,0,0,0-4.3,6.53,18,18,0,0,0-1.84,5.82,10.4,10.4,0,0,0,.46,4.59,9.51,9.51,0,0,0,2.22,3.47,17.58,17.58,0,0,0,3.12,2.47,16.53,16.53,0,0,1,2.18,1.72,6.19,6.19,0,0,1,1.36,1.88,4.93,4.93,0,0,1,.39,2.3,8.79,8.79,0,0,1-1,3.28,16.36,16.36,0,0,1-5.27,6.47,10.9,10.9,0,0,1-6.2,2.21,6.3,6.3,0,0,1-3.7-1.05,4.34,4.34,0,0,1-1.83-2.81l-.47-2.19-7.42,5.46.24.95a8.78,8.78,0,0,0,3.8,5.27,12.73,12.73,0,0,0,7.21,1.91,18.42,18.42,0,0,0,6-1.06,23.92,23.92,0,0,0,5.89-3,28.3,28.3,0,0,0,5.23-4.74,29,29,0,0,0,4.15-6.38,17.41,17.41,0,0,0,1.82-6,10,10,0,0,0-.7-4.75,10.74,10.74,0,0,0-2.45-3.51,22.33,22.33,0,0,0-3.11-2.49,15.51,15.51,0,0,1-2.06-1.6,4.77,4.77,0,0,1-1.21-1.67,4.57,4.57,0,0,1-.3-2.15,9.54,9.54,0,0,1,1-3.25,16.94,16.94,0,0,1,2.57-4,16.16,16.16,0,0,1,3-2.73,11.8,11.8,0,0,1,3.09-1.52,9.55,9.55,0,0,1,2.84-.48,6.11,6.11,0,0,1,3.1.7,3,3,0,0,1,1.28,2.06l.46,2.21,7.44-5.47Z" transform="translate(-3.29 0.04)"/><polygon class="cls-1" points="77.06 259.61 37.11 313.85 45.86 313.85 75.99 271.98 65.48 313.85 73.77 313.85 86.51 259.61 77.06 259.61"/><polygon class="cls-2" points="156.81 108.31 192.77 170.6 192.76 170.6 209.66 199.88 209.84 199.98 209.78 200.08 209.86 200.22 209.61 200.37 193.23 228.74 288.76 228.74 203.59 81.22 172.45 81.22 156.81 108.31"/><polygon class="cls-3" points="93.45 170.43 93.28 170.53 93.22 170.43 93.05 170.43 93.05 170.14 76.04 140.67 25.24 228.66 193.78 228.66 210.33 200 193.31 170.52 93.45 170.43"/><polygon class="cls-4" points="92.62 170.46 120.68 170.46 156.68 108.12 156.76 108.27 172.28 81.38 172.28 81.18 172.4 81.18 172.49 81.03 172.73 81.18 203.54 81.18 156.68 0 75.44 140.71 92.62 170.46"/><polygon class="cls-5" points="172.4 81.22 203.54 81.22 191.94 60.97 160.8 60.97 145.16 88.06 156.8 108.23 172.4 81.22"/><polygon class="cls-6" points="91.85 167.17 75.98 140.37 64.47 160.67 80.33 187.47 111.61 187.13 123.04 166.83 91.85 167.17"/><polygon class="cls-7" points="210 199.54 193.32 228.73 218.52 228.7 235.19 199.51 218.17 170.34 193.03 170.46 210 199.54"/></svg>