<svg id="图层_1" data-name="图层 1" xmlns="http://www.w3.org/2000/svg" viewBox="0 0 1341.42 252.2"><defs><style>.cls-1{fill:#000f28;}.cls-2{fill:#4e9cc5;}.cls-3{fill:#001d3a;}.cls-4,.cls-6{fill:#ffce27;}.cls-5{fill:#60a7d1;}.cls-5,.cls-6,.cls-7{opacity:0.6;}.cls-7{fill:#031f34;}</style></defs><title>未标题-1</title><polygon class="cls-1" points="483.81 51.65 428.9 110.55 430.59 51.65 403.34 51.65 403.21 134.18 311.42 229.58 342.26 229.58 405.14 162.51 403.35 229.58 431.07 229.58 431.16 138.25 514.15 51.65 483.81 51.65"/><polygon class="cls-1" points="728.46 51.65 669.43 174.07 677.53 51.65 648.77 51.65 562.97 229.58 589.23 229.58 648.32 107.04 640.47 229.58 668.45 229.58 754.25 51.65 728.46 51.65"/><polygon class="cls-1" points="843.4 75.44 854.87 51.65 762.95 51.65 751.48 75.44 783.83 75.44 709.5 229.58 736.48 229.58 810.81 75.44 843.4 75.44"/><polygon class="cls-1" points="956.05 23.83 909.13 125.39 855.23 125.39 862.32 109.92 844.23 91.78 837.63 106.03 780.22 230.05 797.18 252.2 843.53 149.65 897.43 149.65 890.59 163.84 909.48 178.83 970.34 50.97 956.05 23.83"/><path class="cls-1" d="M1109.35,137c2.83-11.4,3.7-21.37,2.57-29.62-1.2-8.8-4.64-15.82-10.23-20.85s-13.51-7.65-23.4-7.65a67.15,67.15,0,0,0-29.06,6.89,114,114,0,0,0-27.29,18.73A176,176,0,0,0,997,133.09a254.18,254.18,0,0,0-21.36,36.49c-6.46,13.4-11.14,25.84-13.9,37-2.84,11.41-3.68,21.42-2.51,29.76,1.24,8.88,4.76,15.94,10.44,21s13.61,7.62,23.49,7.62a65.42,65.42,0,0,0,28.48-6.9,114.75,114.75,0,0,0,27.22-18.85,183.26,183.26,0,0,0,25.08-28.7,248.33,248.33,0,0,0,21.6-36.74A193.42,193.42,0,0,0,1109.35,137Zm-28.61,4.73a197.69,197.69,0,0,1-11.11,27.86,241.68,241.68,0,0,1-15.83,28A161.27,161.27,0,0,1,1036,220.21a84.78,84.78,0,0,1-18.41,14.88c-5.83,3.36-11.56,5.07-17,5.07-5,0-8.45-1.28-10.52-3.9-2.3-2.92-3.45-7.2-3.42-12.73,0-6.17,1.35-13.56,3.9-22a197.05,197.05,0,0,1,11.12-27.86,239.2,239.2,0,0,1,15.83-28,154.2,154.2,0,0,1,17.7-22.38,84.38,84.38,0,0,1,18.41-14.65,35.24,35.24,0,0,1,17.41-5.08c4.66,0,7.9,1.26,9.89,3.85,2.27,3,3.47,7.22,3.57,12.65C1084.51,126.09,1083.28,133.36,1080.74,141.72Z" transform="translate(-24.71 -35.27)"/><path class="cls-1" d="M1264.94,82.91h-27.21l-53,110a185,185,0,0,1-9.94,18A91,91,0,0,1,1162.94,226a54.31,54.31,0,0,1-13.87,10.4,33.41,33.41,0,0,1-15.57,3.75c-5,0-8.58-1-10.28-2.78-1.84-2-2.76-4.62-2.79-8.09a44.88,44.88,0,0,1,2.74-14.49,154.71,154.71,0,0,1,7.3-17.77l55-114.12h-27.21L1104.22,195a153,153,0,0,0-9.8,25.42c-2.3,8.33-2.91,15.79-1.83,22.17a24.7,24.7,0,0,0,10.19,16.51c5.42,3.88,13,5.77,23.14,5.77a69.57,69.57,0,0,0,27-5.25,82.48,82.48,0,0,0,22.65-14.26,118,118,0,0,0,18.54-20.94,184.27,184.27,0,0,0,14.75-25.28Z" transform="translate(-24.71 -35.27)"/><path class="cls-1" d="M1365.31,98.6a23.3,23.3,0,0,0-11.78-15.23c-5.53-3-12.58-4.5-21-4.5A62.19,62.19,0,0,0,1313.83,82a77.55,77.55,0,0,0-19,9.24,89.84,89.84,0,0,0-17.57,15.32A92.22,92.22,0,0,0,1263.11,128c-3.44,7.13-5.46,13.55-6,19.07a33.94,33.94,0,0,0,1.5,15.08,30.94,30.94,0,0,0,7.29,11.37,59.16,59.16,0,0,0,10.21,8.1,52.66,52.66,0,0,1,7.18,5.65,20,20,0,0,1,4.45,6.17,16,16,0,0,1,1.29,7.52,29.07,29.07,0,0,1-3.23,10.78c-4.44,9.19-10.25,16.34-17.29,21.23s-13.75,7.24-20.33,7.24A20.77,20.77,0,0,1,1236,236.7a14.19,14.19,0,0,1-6-9.2l-1.54-7.19-24.36,17.91.79,3.11a28.91,28.91,0,0,0,12.46,17.29c6.22,4.17,14.19,6.28,23.67,6.28a61.15,61.15,0,0,0,19.74-3.47,78.71,78.71,0,0,0,19.33-9.87A92.44,92.44,0,0,0,1297.27,236a94.5,94.5,0,0,0,13.6-20.91c3.53-7.31,5.53-13.89,6-19.54a32.62,32.62,0,0,0-2.29-15.58,35.53,35.53,0,0,0-8-11.54,73.51,73.51,0,0,0-10.21-8.14,54.58,54.58,0,0,1-6.76-5.25,15.65,15.65,0,0,1-4-5.51,14.93,14.93,0,0,1-1-7,31.14,31.14,0,0,1,3.36-10.65,57.1,57.1,0,0,1,8.43-13,53.5,53.5,0,0,1,10-9,39.31,39.31,0,0,1,10.13-5,31.79,31.79,0,0,1,9.32-1.57,19.91,19.91,0,0,1,10.17,2.3c2.14,1.29,3.52,3.5,4.2,6.76l1.51,7.25,24.41-18Z" transform="translate(-24.71 -35.27)"/><polygon class="cls-1" points="564.19 51.65 433.15 229.58 461.86 229.58 560.69 92.23 526.22 229.58 553.38 229.58 595.2 51.65 564.19 51.65"/><polygon class="cls-2" points="131.57 108.31 167.53 170.6 167.52 170.6 184.42 199.88 184.6 199.98 184.54 200.08 184.62 200.22 184.37 200.37 167.99 228.74 263.52 228.74 178.35 81.22 147.21 81.22 131.57 108.31"/><polygon class="cls-3" points="68.22 170.43 68.04 170.53 67.98 170.43 67.81 170.43 67.81 170.14 50.8 140.67 0 228.66 168.54 228.66 185.09 200 168.07 170.52 68.22 170.43"/><polygon class="cls-4" points="67.38 170.46 95.44 170.46 131.44 108.12 131.52 108.27 147.05 81.38 147.05 81.18 147.16 81.18 147.25 81.03 147.5 81.18 178.3 81.18 131.44 0 50.2 140.71 67.38 170.46"/><polygon class="cls-5" points="147.16 81.22 178.3 81.22 166.7 60.97 135.56 60.97 119.92 88.06 131.57 108.23 147.16 81.22"/><polygon class="cls-6" points="66.61 167.17 50.75 140.37 39.23 160.67 55.09 187.47 86.38 187.13 97.8 166.83 66.61 167.17"/><polygon class="cls-7" points="184.76 199.54 168.09 228.73 193.28 228.7 209.95 199.51 192.93 170.34 167.79 170.46 184.76 199.54"/></svg>