<?xml version="1.0" encoding="utf-8"?>
<!-- Generator: Adobe Illustrator 22.1.0, SVG Export Plug-In . SVG Version: 6.00 Build 0)  -->
<svg version="1.1" id="图层_1" xmlns="http://www.w3.org/2000/svg" xmlns:xlink="http://www.w3.org/1999/xlink" x="0px" y="0px"
     viewBox="0 0 321 321" style="enable-background:new 0 0 321 321;" xml:space="preserve">
<style type="text/css">
    .st0{fill:#4E9CC5;}
    .st1{fill:#001D3A;}
    .st2{fill:#FFCE27;}
    .st3{opacity:0.6;fill:#60A7D1;}
    .st4{opacity:0.6;fill:#FFCE27;}
    .st5{opacity:0.6;fill:#031F34;}
</style>
<g>
    <polygon class="st0" points="163.8,146.3 199.8,208.6 199.8,208.6 216.7,237.9 216.9,238 216.8,238.1 216.9,238.3 216.6,238.4 
        200.3,266.8 295.8,266.8 210.6,119.2 179.5,119.2     "/>
    <polygon class="st1" points="100.5,208.5 100.3,208.6 100.3,208.5 100.1,208.5 100.1,208.2 83.1,178.7 32.3,266.7 200.8,266.7 
        217.4,238 200.3,208.5   "/>
    <polygon class="st2" points="99.7,208.5 127.7,208.5 163.7,146.1 163.8,146.3 179.3,119.4 179.3,119.2 179.4,119.2 179.5,119.1 
        179.8,119.2 210.6,119.2 163.7,38 82.5,178.7     "/>
    <polygon class="st3" points="179.4,119.2 210.6,119.2 199,99 167.8,99 152.2,126.1 163.8,146.3  "/>
    <polygon class="st4" points="98.9,205.2 83,178.4 71.5,198.7 87.4,225.5 118.6,225.2 130.1,204.9    "/>
    <polygon class="st5" points="217,237.6 200.4,266.8 225.5,266.7 242.2,237.5 225.2,208.4 200.1,208.5    "/>
</g>
</svg>
