<svg width="121" height="19" viewBox="0 0 121 19" fill="none" xmlns="http://www.w3.org/2000/svg">
<g clip-path="url(#clip0)">
<path d="M42.6017 8.01826C42.7069 7.91307 49.965 0.234253 49.965 0.234253H43.1276C43.1276 0.234253 36.6059 6.23004 36.3955 6.44042V0.234253H29.8738V17.9061H36.3955V14.1192C36.5007 14.1192 37.6578 13.0674 37.763 12.9622C37.8682 13.0674 41.8654 17.9061 41.8654 17.9061H50.4909C50.4909 17.9061 42.7069 8.12345 42.6017 8.01826Z" fill="black"/>
<path d="M107.714 0.234253V6.54561H102.139V0.234253H95.512V17.8009H102.139V11.3843H107.714V17.8009H114.551V0.234253H107.714Z" fill="black"/>
<path d="M63.7448 5.59891V12.6466C63.7448 13.3829 63.2188 13.9089 62.5877 13.9089H58.8009C58.1697 13.9089 57.6438 13.2777 57.6438 12.6466V5.59891C57.6438 4.86258 58.1697 4.33663 58.8009 4.33663H62.5877C63.2188 4.33663 63.7448 4.86258 63.7448 5.59891ZM66.4797 0.234253H54.9089C52.8051 0.234253 51.0168 2.23285 51.0168 4.6522V13.3829C51.0168 15.8023 52.8051 17.8009 54.9089 17.8009H66.3745C68.4783 17.8009 70.2665 15.8023 70.2665 13.3829V4.6522C70.3717 2.23285 68.5835 0.234253 66.4797 0.234253Z" fill="black"/>
<path d="M92.3563 6.6508V5.28334C92.3563 3.7055 91.8303 2.12766 90.8836 1.18095C90.2525 0.549818 89.6214 0.234253 88.885 0.234253H76.7883C74.8949 0.234253 73.317 2.54842 73.317 5.28334V12.7518C73.317 15.4867 74.8949 17.8009 76.7883 17.8009H88.7799C90.6733 17.8009 92.2511 15.4867 92.2511 12.7518V10.7532H85.9397L85.8345 12.4362C85.7294 13.1725 85.3086 13.9089 84.6775 13.9089H80.9958C80.3647 13.9089 79.8388 13.3829 79.8388 12.6466V5.59891C79.8388 4.96777 80.3647 4.33663 80.9958 4.33663H84.6775C85.3086 4.33663 85.8345 4.86258 85.8345 5.59891V6.54561H92.3563V6.6508Z" fill="black"/>
<path d="M116.024 15.4867V15.9074H116.76V17.8009H117.181V15.9074H117.917V15.4867H116.024ZM120.126 15.4867L119.495 17.1697L118.864 15.4867H118.233V17.8009H118.654V15.9074L119.285 17.8009H119.6L120.231 15.9074V17.8009H120.652V15.4867H120.126Z" fill="black"/>
<path d="M11.7812 0.234253H0.105225V17.8009H11.6761L8.94113 9.07015L11.7812 0.234253Z" fill="black"/>
<path d="M15.8836 0.234253L10.6241 9.07015L15.8836 17.8009H24.0884V0.234253H15.8836Z" fill="#0099D8"/>
</g>
<defs>
<clipPath id="clip0">
<rect y="0.129028" width="120.968" height="18.0926" fill="white"/>
</clipPath>
</defs>
</svg>
